<svg viewBox="0 0 524 415" fill="none" xmlns="http://www.w3.org/2000/svg">
<g clip-path="url(#clip0_8497_5234)">
<path d="M373.111 25.8219C374.954 25.8219 376.447 24.3137 376.447 22.4531C376.447 20.5926 374.954 19.084 373.111 19.084C371.269 19.084 369.774 20.5926 369.774 22.4531C369.774 24.3137 371.269 25.8219 373.111 25.8219Z" fill="#F1B357"/>
<path d="M400.37 52.2516C402.212 52.2516 403.705 50.7434 403.705 48.8828C403.705 47.0223 402.212 45.5137 400.37 45.5137C398.528 45.5137 397.033 47.0223 397.033 48.8828C397.033 50.7434 398.528 52.2516 400.37 52.2516Z" fill="#F1B357"/>
<path d="M400.37 25.8219C402.212 25.8219 403.705 24.3137 403.705 22.4531C403.705 20.5926 402.212 19.084 400.37 19.084C398.528 19.084 397.033 20.5926 397.033 22.4531C397.033 24.3137 398.528 25.8219 400.37 25.8219Z" fill="#F1B357"/>
<path d="M427.224 52.2624C429.066 52.2624 430.559 50.7541 430.559 48.8936C430.559 47.033 429.066 45.5244 427.224 45.5244C425.381 45.5244 423.887 47.033 423.887 48.8936C423.887 50.7541 425.381 52.2624 427.224 52.2624Z" fill="#F1B357"/>
<path d="M427.224 78.7624C429.066 78.7624 430.559 77.2541 430.559 75.3936C430.559 73.533 429.066 72.0244 427.224 72.0244C425.381 72.0244 423.887 73.533 423.887 75.3936C423.887 77.2541 425.381 78.7624 427.224 78.7624Z" fill="#F1B357"/>
<path d="M427.224 25.8219C429.066 25.8219 430.559 24.3137 430.559 22.4531C430.559 20.5926 429.066 19.084 427.224 19.084C425.381 19.084 423.887 20.5926 423.887 22.4531C423.887 24.3137 425.381 25.8219 427.224 25.8219Z" fill="#F1B357"/>
</g>
<g filter="url(#filter0_d_8497_5234)">
<rect x="100" y="42.2988" width="282.05" height="350.701" rx="6" fill="#FEC06B"/>
</g>
<g filter="url(#filter1_d_8497_5234)">
<rect x="119.028" y="31.541" width="283.704" height="343.257" rx="10" fill="#FBFBFB"/>
<rect x="119.528" y="32.041" width="282.704" height="342.257" rx="9.5" stroke="#F2F2F2"/>
</g>
<rect width="201.819" height="12.4069" transform="matrix(-1 0 0 1 358.895 68.7686)" fill="#EDEDED"/>
<rect width="285.358" height="12.4069" transform="matrix(-1 0 0 1 442.43 129.97)" fill="#EDEDED"/>
<rect width="177.005" height="12.4069" transform="matrix(-1 0 0 1 334.073 191.17)" fill="#EDEDED"/>
<rect width="212.571" height="12.4069" transform="matrix(-1 0 0 1 369.643 252.38)" fill="#EDEDED"/>
<path d="M166.993 327.654H277.719H388.445H500.325" stroke="#4B7CCB" stroke-width="6"/>
<path d="M278.66 314.262C286.549 314.262 292.875 320.479 292.875 328.063C292.875 335.648 286.549 341.865 278.66 341.865C270.771 341.865 264.444 335.649 264.444 328.063C264.444 320.478 270.771 314.262 278.66 314.262Z" fill="#FBFBFB" stroke="#4B7CCB" stroke-width="3"/>
<circle cx="166.586" cy="328.067" r="9.51194" fill="#4B7CCB"/>
<circle cx="278.239" cy="328.067" r="9.51194" fill="#4B7CCB"/>
<circle cx="389.903" cy="328.067" r="8.01194" fill="white" stroke="#4B7CCB" stroke-width="3"/>
<circle cx="500.737" cy="328.067" r="8.01194" fill="white" stroke="#4B7CCB" stroke-width="3"/>
<g clip-path="url(#clip1_8497_5234)">
<path d="M300.277 178.423C299.83 176.795 298.957 175.31 297.746 174.118C296.535 172.925 295.028 172.066 293.374 171.625C287.321 170 262.96 170 262.96 170C262.96 170 238.598 170.049 232.545 171.675C230.892 172.115 229.385 172.975 228.173 174.167C226.962 175.36 226.09 176.844 225.642 178.472C223.811 189.061 223.101 205.197 225.693 215.363C226.14 216.991 227.013 218.475 228.224 219.668C229.435 220.86 230.942 221.72 232.596 222.16C238.649 223.786 263.01 223.786 263.01 223.786C263.01 223.786 287.371 223.786 293.424 222.16C295.077 221.72 296.585 220.86 297.796 219.668C299.007 218.475 299.88 216.991 300.327 215.363C302.258 204.759 302.853 188.633 300.277 178.423Z" fill="#E85858" fill-opacity="0.8"/>
<path d="M255.204 208.423L275.413 196.897L255.204 185.372V208.423Z" fill="white"/>
</g>
<g filter="url(#filter2_d_8497_5234)">
<rect x="43" y="91" width="196" height="45" rx="2" fill="#FBFCFB" shape-rendering="crispEdges"/>
<path d="M60.4134 110.5H59.2486L61.8658 103.227H63.1335L65.7507 110.5H64.5859L62.5298 104.548H62.473L60.4134 110.5ZM60.6087 107.652H64.3871V108.575H60.6087V107.652ZM73.0447 112.545V109.651H72.9808C72.9169 109.767 72.8246 109.9 72.7038 110.049C72.5855 110.198 72.4221 110.328 72.2138 110.44C72.0054 110.551 71.7356 110.607 71.4041 110.607C70.9638 110.607 70.5708 110.494 70.2251 110.269C69.8819 110.042 69.612 109.719 69.4155 109.3C69.2214 108.878 69.1243 108.373 69.1243 107.783C69.1243 107.194 69.2225 106.69 69.419 106.271C69.6179 105.852 69.8902 105.531 70.2358 105.308C70.5814 105.086 70.9732 104.974 71.4112 104.974C71.7498 104.974 72.022 105.031 72.228 105.145C72.4363 105.256 72.5973 105.386 72.7109 105.536C72.8269 105.685 72.9169 105.816 72.9808 105.93H73.0696V105.045H74.1065V112.545H73.0447ZM71.6385 109.701C71.9439 109.701 72.2019 109.621 72.4126 109.46C72.6257 109.296 72.7867 109.07 72.8956 108.781C73.0069 108.492 73.0625 108.156 73.0625 107.773C73.0625 107.394 73.008 107.062 72.8991 106.778C72.7902 106.494 72.6304 106.273 72.4197 106.114C72.209 105.956 71.9486 105.876 71.6385 105.876C71.3189 105.876 71.0526 105.959 70.8395 106.125C70.6264 106.291 70.4654 106.517 70.3565 106.803C70.25 107.09 70.1967 107.413 70.1967 107.773C70.1967 108.137 70.2512 108.465 70.3601 108.756C70.469 109.048 70.63 109.278 70.843 109.449C71.0585 109.617 71.3236 109.701 71.6385 109.701ZM78.9893 108.238V105.045H80.0547V110.5H79.0107V109.555H78.9538C78.8284 109.847 78.6271 110.089 78.3501 110.283C78.0755 110.475 77.7334 110.571 77.3239 110.571C76.9735 110.571 76.6634 110.494 76.3935 110.34C76.1259 110.184 75.9152 109.953 75.7614 109.648C75.6098 109.342 75.5341 108.965 75.5341 108.515V105.045H76.5959V108.387C76.5959 108.759 76.6989 109.055 76.9048 109.275C77.1108 109.495 77.3783 109.605 77.7074 109.605C77.9063 109.605 78.1039 109.555 78.3004 109.456C78.4993 109.357 78.6638 109.206 78.794 109.005C78.9266 108.804 78.9917 108.548 78.9893 108.238ZM81.4814 110.5V105.045H82.5431V110.5H81.4814ZM82.0176 104.204C81.8329 104.204 81.6743 104.142 81.5417 104.019C81.4115 103.894 81.3464 103.745 81.3464 103.572C81.3464 103.397 81.4115 103.247 81.5417 103.124C81.6743 102.999 81.8329 102.936 82.0176 102.936C82.2022 102.936 82.3597 102.999 82.4899 103.124C82.6225 103.247 82.6887 103.397 82.6887 103.572C82.6887 103.745 82.6225 103.894 82.4899 104.019C82.3597 104.142 82.2022 104.204 82.0176 104.204ZM86.2692 110.61C85.7412 110.61 85.2867 110.491 84.9055 110.251C84.5268 110.01 84.2356 109.677 84.032 109.254C83.8284 108.83 83.7266 108.344 83.7266 107.798C83.7266 107.244 83.8307 106.755 84.0391 106.331C84.2474 105.905 84.541 105.572 84.9197 105.333C85.2985 105.094 85.7448 104.974 86.2585 104.974C86.6728 104.974 87.0421 105.051 87.3665 105.205C87.6908 105.357 87.9524 105.57 88.1513 105.844C88.3525 106.119 88.4721 106.44 88.5099 106.807H87.4766C87.4197 106.551 87.2895 106.331 87.0859 106.146C86.8847 105.962 86.6148 105.869 86.2763 105.869C85.9804 105.869 85.7211 105.947 85.4986 106.104C85.2784 106.258 85.1068 106.478 84.9837 106.764C84.8606 107.048 84.799 107.384 84.799 107.773C84.799 108.17 84.8594 108.514 84.9801 108.803C85.1009 109.091 85.2713 109.315 85.4915 109.474C85.714 109.632 85.9756 109.712 86.2763 109.712C86.4775 109.712 86.6598 109.675 86.8232 109.602C86.9889 109.526 87.1274 109.418 87.2386 109.278C87.3523 109.139 87.4316 108.971 87.4766 108.774H88.5099C88.4721 109.127 88.3572 109.442 88.1655 109.719C87.9737 109.996 87.7169 110.214 87.3949 110.372C87.0753 110.531 86.7 110.61 86.2692 110.61ZM90.622 108.65L90.6149 107.354H90.7995L92.9728 105.045H94.2441L91.7654 107.673H91.5985L90.622 108.65ZM89.6454 110.5V103.227H90.7072V110.5H89.6454ZM93.09 110.5L91.1369 107.908L91.8684 107.165L94.3933 110.5H93.09ZM101.946 106.377L100.983 106.548C100.943 106.424 100.879 106.307 100.792 106.196C100.706 106.085 100.59 105.994 100.444 105.923C100.297 105.852 100.113 105.816 99.8931 105.816C99.5924 105.816 99.3415 105.884 99.1403 106.018C98.939 106.151 98.8384 106.323 98.8384 106.533C98.8384 106.716 98.9059 106.862 99.0408 106.974C99.1758 107.085 99.3936 107.176 99.6942 107.247L100.561 107.446C101.063 107.562 101.437 107.741 101.683 107.982C101.929 108.224 102.052 108.537 102.052 108.923C102.052 109.25 101.958 109.541 101.768 109.797C101.581 110.05 101.319 110.249 100.983 110.393C100.65 110.538 100.262 110.61 99.8221 110.61C99.2113 110.61 98.7129 110.48 98.3271 110.219C97.9412 109.957 97.7044 109.584 97.6168 109.101L98.6431 108.945C98.707 109.212 98.8384 109.415 99.0373 109.552C99.2362 109.687 99.4954 109.754 99.815 109.754C100.163 109.754 100.441 109.682 100.65 109.538C100.858 109.391 100.962 109.212 100.962 109.001C100.962 108.831 100.898 108.688 100.77 108.572C100.645 108.456 100.452 108.368 100.191 108.309L99.2681 108.107C98.7591 107.991 98.3827 107.806 98.1388 107.553C97.8974 107.299 97.7766 106.978 97.7766 106.59C97.7766 106.268 97.8666 105.987 98.0465 105.745C98.2264 105.504 98.475 105.315 98.7923 105.18C99.1095 105.043 99.4729 104.974 99.8825 104.974C100.472 104.974 100.936 105.102 101.275 105.358C101.613 105.611 101.837 105.951 101.946 106.377ZM105.766 105.045V105.898H102.786V105.045H105.766ZM103.585 103.739H104.647V108.898C104.647 109.104 104.678 109.259 104.74 109.364C104.801 109.465 104.88 109.535 104.977 109.573C105.077 109.609 105.185 109.626 105.301 109.626C105.386 109.626 105.46 109.621 105.524 109.609C105.588 109.597 105.638 109.587 105.673 109.58L105.865 110.457C105.804 110.481 105.716 110.505 105.602 110.528C105.489 110.554 105.347 110.569 105.176 110.571C104.897 110.576 104.637 110.526 104.395 110.422C104.154 110.318 103.958 110.157 103.809 109.939C103.66 109.721 103.585 109.448 103.585 109.119V103.739ZM109.233 110.61C108.695 110.61 108.232 110.495 107.844 110.266C107.458 110.034 107.16 109.708 106.949 109.289C106.741 108.868 106.637 108.374 106.637 107.808C106.637 107.25 106.741 106.757 106.949 106.331C107.16 105.905 107.453 105.572 107.83 105.333C108.209 105.094 108.651 104.974 109.158 104.974C109.466 104.974 109.764 105.025 110.053 105.127C110.342 105.229 110.601 105.389 110.831 105.607C111.06 105.824 111.241 106.107 111.374 106.455C111.507 106.801 111.573 107.221 111.573 107.716V108.092H107.237V107.297H110.532C110.532 107.018 110.475 106.77 110.362 106.555C110.248 106.337 110.088 106.165 109.882 106.04C109.679 105.914 109.44 105.852 109.165 105.852C108.867 105.852 108.606 105.925 108.384 106.072C108.164 106.216 107.993 106.406 107.873 106.64C107.754 106.872 107.695 107.124 107.695 107.396V108.018C107.695 108.382 107.759 108.692 107.887 108.948C108.017 109.204 108.198 109.399 108.43 109.534C108.662 109.667 108.933 109.733 109.243 109.733C109.444 109.733 109.628 109.705 109.794 109.648C109.959 109.589 110.103 109.501 110.223 109.385C110.344 109.269 110.436 109.126 110.5 108.955L111.505 109.136C111.425 109.432 111.28 109.692 111.072 109.914C110.866 110.134 110.607 110.306 110.294 110.429C109.984 110.55 109.63 110.61 109.233 110.61ZM112.751 112.545V105.045H113.788V105.93H113.877C113.938 105.816 114.027 105.685 114.143 105.536C114.259 105.386 114.42 105.256 114.626 105.145C114.832 105.031 115.104 104.974 115.443 104.974C115.883 104.974 116.276 105.086 116.622 105.308C116.967 105.531 117.238 105.852 117.435 106.271C117.634 106.69 117.733 107.194 117.733 107.783C117.733 108.373 117.635 108.878 117.438 109.3C117.242 109.719 116.972 110.042 116.629 110.269C116.285 110.494 115.894 110.607 115.453 110.607C115.122 110.607 114.851 110.551 114.64 110.44C114.432 110.328 114.268 110.198 114.15 110.049C114.032 109.9 113.941 109.767 113.877 109.651H113.813V112.545H112.751ZM113.791 107.773C113.791 108.156 113.847 108.492 113.958 108.781C114.07 109.07 114.231 109.296 114.441 109.46C114.652 109.621 114.91 109.701 115.215 109.701C115.533 109.701 115.798 109.617 116.011 109.449C116.224 109.278 116.385 109.048 116.494 108.756C116.605 108.465 116.661 108.137 116.661 107.773C116.661 107.413 116.606 107.09 116.497 106.803C116.391 106.517 116.23 106.291 116.014 106.125C115.801 105.959 115.535 105.876 115.215 105.876C114.908 105.876 114.647 105.956 114.434 106.114C114.223 106.273 114.064 106.494 113.955 106.778C113.846 107.062 113.791 107.394 113.791 107.773ZM122.137 106.967V107.886H118.912V106.967H122.137ZM123.637 110.5V103.227H124.699V105.93H124.763C124.824 105.816 124.913 105.685 125.029 105.536C125.145 105.386 125.306 105.256 125.512 105.145C125.718 105.031 125.99 104.974 126.329 104.974C126.769 104.974 127.162 105.086 127.508 105.308C127.853 105.531 128.124 105.852 128.321 106.271C128.52 106.69 128.619 107.194 128.619 107.783C128.619 108.373 128.521 108.878 128.324 109.3C128.128 109.719 127.858 110.042 127.515 110.269C127.171 110.494 126.78 110.607 126.339 110.607C126.008 110.607 125.737 110.551 125.526 110.44C125.318 110.328 125.154 110.198 125.036 110.049C124.918 109.9 124.827 109.767 124.763 109.651H124.674V110.5H123.637ZM124.677 107.773C124.677 108.156 124.733 108.492 124.844 108.781C124.956 109.07 125.117 109.296 125.327 109.46C125.538 109.621 125.796 109.701 126.101 109.701C126.419 109.701 126.684 109.617 126.897 109.449C127.11 109.278 127.271 109.048 127.38 108.756C127.491 108.465 127.547 108.137 127.547 107.773C127.547 107.413 127.492 107.09 127.383 106.803C127.277 106.517 127.116 106.291 126.9 106.125C126.687 105.959 126.421 105.876 126.101 105.876C125.794 105.876 125.533 105.956 125.32 106.114C125.109 106.273 124.95 106.494 124.841 106.778C124.732 107.062 124.677 107.394 124.677 107.773ZM130.297 112.545C130.138 112.545 129.994 112.532 129.864 112.506C129.734 112.483 129.637 112.457 129.573 112.428L129.828 111.558C130.022 111.61 130.195 111.633 130.347 111.626C130.498 111.619 130.632 111.562 130.748 111.455C130.866 111.349 130.971 111.175 131.061 110.933L131.192 110.571L129.196 105.045H130.333L131.714 109.278H131.771L133.152 105.045H134.292L132.044 111.228C131.94 111.512 131.807 111.752 131.646 111.949C131.485 112.148 131.294 112.297 131.071 112.396C130.849 112.496 130.591 112.545 130.297 112.545ZM138.504 106.967V107.886H135.279V106.967H138.504ZM144.006 106.377L143.044 106.548C143.004 106.424 142.94 106.307 142.852 106.196C142.767 106.085 142.651 105.994 142.504 105.923C142.357 105.852 142.174 105.816 141.954 105.816C141.653 105.816 141.402 105.884 141.201 106.018C141 106.151 140.899 106.323 140.899 106.533C140.899 106.716 140.966 106.862 141.101 106.974C141.236 107.085 141.454 107.176 141.755 107.247L142.621 107.446C143.123 107.562 143.497 107.741 143.743 107.982C143.99 108.224 144.113 108.537 144.113 108.923C144.113 109.25 144.018 109.541 143.829 109.797C143.642 110.05 143.38 110.249 143.044 110.393C142.71 110.538 142.323 110.61 141.883 110.61C141.272 110.61 140.773 110.48 140.388 110.219C140.002 109.957 139.765 109.584 139.677 109.101L140.704 108.945C140.768 109.212 140.899 109.415 141.098 109.552C141.297 109.687 141.556 109.754 141.876 109.754C142.224 109.754 142.502 109.682 142.71 109.538C142.918 109.391 143.023 109.212 143.023 109.001C143.023 108.831 142.959 108.688 142.831 108.572C142.705 108.456 142.512 108.368 142.252 108.309L141.329 108.107C140.82 107.991 140.443 107.806 140.199 107.553C139.958 107.299 139.837 106.978 139.837 106.59C139.837 106.268 139.927 105.987 140.107 105.745C140.287 105.504 140.536 105.315 140.853 105.18C141.17 105.043 141.533 104.974 141.943 104.974C142.532 104.974 142.997 105.102 143.335 105.358C143.674 105.611 143.897 105.951 144.006 106.377ZM147.826 105.045V105.898H144.847V105.045H147.826ZM145.646 103.739H146.708V108.898C146.708 109.104 146.739 109.259 146.8 109.364C146.862 109.465 146.941 109.535 147.038 109.573C147.137 109.609 147.245 109.626 147.361 109.626C147.446 109.626 147.521 109.621 147.585 109.609C147.649 109.597 147.699 109.587 147.734 109.58L147.926 110.457C147.864 110.481 147.777 110.505 147.663 110.528C147.549 110.554 147.407 110.569 147.237 110.571C146.958 110.576 146.697 110.526 146.456 110.422C146.214 110.318 146.019 110.157 145.87 109.939C145.721 109.721 145.646 109.448 145.646 109.119V103.739ZM151.293 110.61C150.756 110.61 150.293 110.495 149.905 110.266C149.519 110.034 149.22 109.708 149.01 109.289C148.801 108.868 148.697 108.374 148.697 107.808C148.697 107.25 148.801 106.757 149.01 106.331C149.22 105.905 149.514 105.572 149.89 105.333C150.269 105.094 150.712 104.974 151.219 104.974C151.526 104.974 151.825 105.025 152.113 105.127C152.402 105.229 152.662 105.389 152.891 105.607C153.121 105.824 153.302 106.107 153.434 106.455C153.567 106.801 153.633 107.221 153.633 107.716V108.092H149.297V107.297H152.593C152.593 107.018 152.536 106.77 152.422 106.555C152.309 106.337 152.149 106.165 151.943 106.04C151.739 105.914 151.5 105.852 151.226 105.852C150.927 105.852 150.667 105.925 150.444 106.072C150.224 106.216 150.054 106.406 149.933 106.64C149.815 106.872 149.756 107.124 149.756 107.396V108.018C149.756 108.382 149.819 108.692 149.947 108.948C150.077 109.204 150.259 109.399 150.491 109.534C150.723 109.667 150.994 109.733 151.304 109.733C151.505 109.733 151.689 109.705 151.854 109.648C152.02 109.589 152.163 109.501 152.284 109.385C152.405 109.269 152.497 109.126 152.561 108.955L153.566 109.136C153.485 109.432 153.341 109.692 153.133 109.914C152.927 110.134 152.667 110.306 152.355 110.429C152.045 110.55 151.691 110.61 151.293 110.61ZM154.811 112.545V105.045H155.848V105.93H155.937C155.999 105.816 156.087 105.685 156.203 105.536C156.319 105.386 156.48 105.256 156.686 105.145C156.892 105.031 157.165 104.974 157.503 104.974C157.944 104.974 158.337 105.086 158.682 105.308C159.028 105.531 159.299 105.852 159.495 106.271C159.694 106.69 159.794 107.194 159.794 107.783C159.794 108.373 159.695 108.878 159.499 109.3C159.302 109.719 159.033 110.042 158.689 110.269C158.346 110.494 157.954 110.607 157.514 110.607C157.182 110.607 156.911 110.551 156.701 110.44C156.492 110.328 156.329 110.198 156.211 110.049C156.092 109.9 156.001 109.767 155.937 109.651H155.873V112.545H154.811ZM155.852 107.773C155.852 108.156 155.908 108.492 156.019 108.781C156.13 109.07 156.291 109.296 156.502 109.46C156.712 109.621 156.971 109.701 157.276 109.701C157.593 109.701 157.858 109.617 158.071 109.449C158.284 109.278 158.445 109.048 158.554 108.756C158.666 108.465 158.721 108.137 158.721 107.773C158.721 107.413 158.667 107.09 158.558 106.803C158.451 106.517 158.29 106.291 158.075 106.125C157.862 105.959 157.596 105.876 157.276 105.876C156.968 105.876 156.708 105.956 156.495 106.114C156.284 106.273 156.124 106.494 156.015 106.778C155.906 107.062 155.852 107.394 155.852 107.773ZM168.296 105.045L166.318 110.5H165.182L163.2 105.045H164.34L165.721 109.243H165.778L167.156 105.045H168.296ZM169.294 110.5V105.045H170.356V110.5H169.294ZM169.83 104.204C169.645 104.204 169.487 104.142 169.354 104.019C169.224 103.894 169.159 103.745 169.159 103.572C169.159 103.397 169.224 103.247 169.354 103.124C169.487 102.999 169.645 102.936 169.83 102.936C170.015 102.936 170.172 102.999 170.302 103.124C170.435 103.247 170.501 103.397 170.501 103.572C170.501 103.745 170.435 103.894 170.302 104.019C170.172 104.142 170.015 104.204 169.83 104.204ZM173.826 110.607C173.386 110.607 172.993 110.494 172.647 110.269C172.304 110.042 172.034 109.719 171.837 109.3C171.643 108.878 171.546 108.373 171.546 107.783C171.546 107.194 171.644 106.69 171.841 106.271C172.04 105.852 172.312 105.531 172.658 105.308C173.003 105.086 173.395 104.974 173.833 104.974C174.172 104.974 174.444 105.031 174.65 105.145C174.858 105.256 175.019 105.386 175.133 105.536C175.249 105.685 175.339 105.816 175.403 105.93H175.467V103.227H176.528V110.5H175.491V109.651H175.403C175.339 109.767 175.246 109.9 175.126 110.049C175.007 110.198 174.844 110.328 174.636 110.44C174.427 110.551 174.157 110.607 173.826 110.607ZM174.06 109.701C174.366 109.701 174.624 109.621 174.835 109.46C175.048 109.296 175.209 109.07 175.317 108.781C175.429 108.492 175.484 108.156 175.484 107.773C175.484 107.394 175.43 107.062 175.321 106.778C175.212 106.494 175.052 106.273 174.842 106.114C174.631 105.956 174.371 105.876 174.06 105.876C173.741 105.876 173.474 105.959 173.261 106.125C173.048 106.291 172.887 106.517 172.778 106.803C172.672 107.09 172.619 107.413 172.619 107.773C172.619 108.137 172.673 108.465 172.782 108.756C172.891 109.048 173.052 109.278 173.265 109.449C173.48 109.617 173.746 109.701 174.06 109.701ZM180.395 110.61C179.857 110.61 179.394 110.495 179.006 110.266C178.62 110.034 178.322 109.708 178.111 109.289C177.903 108.868 177.799 108.374 177.799 107.808C177.799 107.25 177.903 106.757 178.111 106.331C178.322 105.905 178.616 105.572 178.992 105.333C179.371 105.094 179.814 104.974 180.32 104.974C180.628 104.974 180.926 105.025 181.215 105.127C181.504 105.229 181.763 105.389 181.993 105.607C182.222 105.824 182.403 106.107 182.536 106.455C182.669 106.801 182.735 107.221 182.735 107.716V108.092H178.399V107.297H181.694C181.694 107.018 181.638 106.77 181.524 106.555C181.41 106.337 181.251 106.165 181.045 106.04C180.841 105.914 180.602 105.852 180.327 105.852C180.029 105.852 179.769 105.925 179.546 106.072C179.326 106.216 179.155 106.406 179.035 106.64C178.916 106.872 178.857 107.124 178.857 107.396V108.018C178.857 108.382 178.921 108.692 179.049 108.948C179.179 109.204 179.36 109.399 179.592 109.534C179.824 109.667 180.095 109.733 180.405 109.733C180.607 109.733 180.79 109.705 180.956 109.648C181.122 109.589 181.265 109.501 181.385 109.385C181.506 109.269 181.599 109.126 181.662 108.955L182.667 109.136C182.587 109.432 182.443 109.692 182.234 109.914C182.028 110.134 181.769 110.306 181.456 110.429C181.146 110.55 180.792 110.61 180.395 110.61ZM186.211 110.61C185.699 110.61 185.253 110.493 184.872 110.259C184.491 110.024 184.195 109.696 183.984 109.275C183.773 108.853 183.668 108.361 183.668 107.798C183.668 107.232 183.773 106.737 183.984 106.313C184.195 105.889 184.491 105.56 184.872 105.326C185.253 105.092 185.699 104.974 186.211 104.974C186.722 104.974 187.168 105.092 187.549 105.326C187.931 105.56 188.226 105.889 188.437 106.313C188.648 106.737 188.753 107.232 188.753 107.798C188.753 108.361 188.648 108.853 188.437 109.275C188.226 109.696 187.931 110.024 187.549 110.259C187.168 110.493 186.722 110.61 186.211 110.61ZM186.214 109.719C186.546 109.719 186.82 109.631 187.038 109.456C187.256 109.281 187.417 109.048 187.521 108.756C187.627 108.465 187.681 108.144 187.681 107.794C187.681 107.446 187.627 107.126 187.521 106.835C187.417 106.542 187.256 106.306 187.038 106.129C186.82 105.951 186.546 105.862 186.214 105.862C185.88 105.862 185.603 105.951 185.383 106.129C185.165 106.306 185.003 106.542 184.897 106.835C184.792 107.126 184.74 107.446 184.74 107.794C184.74 108.144 184.792 108.465 184.897 108.756C185.003 109.048 185.165 109.281 185.383 109.456C185.603 109.631 185.88 109.719 186.214 109.719ZM194.872 112.659C194.439 112.659 194.066 112.602 193.753 112.489C193.443 112.375 193.19 112.225 192.993 112.038C192.797 111.851 192.65 111.646 192.553 111.423L193.466 111.047C193.529 111.151 193.615 111.261 193.721 111.377C193.83 111.496 193.977 111.596 194.162 111.679C194.349 111.762 194.589 111.803 194.882 111.803C195.285 111.803 195.618 111.705 195.88 111.509C196.143 111.314 196.275 111.004 196.275 110.578V109.506H196.207C196.143 109.622 196.051 109.751 195.93 109.893C195.812 110.035 195.648 110.158 195.44 110.262C195.232 110.366 194.961 110.418 194.627 110.418C194.196 110.418 193.808 110.318 193.462 110.116C193.119 109.913 192.846 109.613 192.645 109.218C192.446 108.82 192.347 108.331 192.347 107.751C192.347 107.171 192.445 106.674 192.642 106.26C192.841 105.846 193.113 105.528 193.458 105.308C193.804 105.086 194.196 104.974 194.634 104.974C194.972 104.974 195.246 105.031 195.454 105.145C195.663 105.256 195.825 105.386 195.941 105.536C196.059 105.685 196.15 105.816 196.214 105.93H196.292V105.045H197.333V110.621C197.333 111.089 197.224 111.474 197.006 111.775C196.788 112.076 196.493 112.298 196.122 112.442C195.752 112.587 195.336 112.659 194.872 112.659ZM194.861 109.538C195.167 109.538 195.425 109.467 195.635 109.325C195.848 109.18 196.009 108.974 196.118 108.707C196.23 108.437 196.285 108.114 196.285 107.737C196.285 107.37 196.231 107.047 196.122 106.768C196.013 106.488 195.853 106.271 195.642 106.114C195.432 105.956 195.171 105.876 194.861 105.876C194.542 105.876 194.275 105.959 194.062 106.125C193.849 106.288 193.688 106.511 193.579 106.793C193.473 107.074 193.419 107.389 193.419 107.737C193.419 108.095 193.474 108.408 193.583 108.678C193.692 108.948 193.853 109.159 194.066 109.31C194.281 109.462 194.546 109.538 194.861 109.538ZM202.212 108.238V105.045H203.277V110.5H202.233V109.555H202.176C202.051 109.847 201.85 110.089 201.573 110.283C201.298 110.475 200.956 110.571 200.547 110.571C200.196 110.571 199.886 110.494 199.616 110.34C199.349 110.184 199.138 109.953 198.984 109.648C198.833 109.342 198.757 108.965 198.757 108.515V105.045H199.819V108.387C199.819 108.759 199.922 109.055 200.127 109.275C200.333 109.495 200.601 109.605 200.93 109.605C201.129 109.605 201.327 109.555 201.523 109.456C201.722 109.357 201.886 109.206 202.017 109.005C202.149 108.804 202.214 108.548 202.212 108.238ZM204.704 110.5V105.045H205.766V110.5H204.704ZM205.24 104.204C205.056 104.204 204.897 104.142 204.764 104.019C204.634 103.894 204.569 103.745 204.569 103.572C204.569 103.397 204.634 103.247 204.764 103.124C204.897 102.999 205.056 102.936 205.24 102.936C205.425 102.936 205.582 102.999 205.713 103.124C205.845 103.247 205.911 103.397 205.911 103.572C205.911 103.745 205.845 103.894 205.713 104.019C205.582 104.142 205.425 104.204 205.24 104.204ZM209.236 110.607C208.796 110.607 208.403 110.494 208.057 110.269C207.714 110.042 207.444 109.719 207.248 109.3C207.053 108.878 206.956 108.373 206.956 107.783C206.956 107.194 207.055 106.69 207.251 106.271C207.45 105.852 207.722 105.531 208.068 105.308C208.413 105.086 208.805 104.974 209.243 104.974C209.582 104.974 209.854 105.031 210.06 105.145C210.268 105.256 210.429 105.386 210.543 105.536C210.659 105.685 210.749 105.816 210.813 105.93H210.877V103.227H211.939V110.5H210.902V109.651H210.813C210.749 109.767 210.657 109.9 210.536 110.049C210.417 110.198 210.254 110.328 210.046 110.44C209.837 110.551 209.568 110.607 209.236 110.607ZM209.471 109.701C209.776 109.701 210.034 109.621 210.245 109.46C210.458 109.296 210.619 109.07 210.728 108.781C210.839 108.492 210.895 108.156 210.895 107.773C210.895 107.394 210.84 107.062 210.731 106.778C210.622 106.494 210.462 106.273 210.252 106.114C210.041 105.956 209.781 105.876 209.471 105.876C209.151 105.876 208.885 105.959 208.672 106.125C208.458 106.291 208.297 106.517 208.189 106.803C208.082 107.09 208.029 107.413 208.029 107.773C208.029 108.137 208.083 108.465 208.192 108.756C208.301 109.048 208.462 109.278 208.675 109.449C208.891 109.617 209.156 109.701 209.471 109.701ZM215.805 110.61C215.267 110.61 214.805 110.495 214.416 110.266C214.03 110.034 213.732 109.708 213.521 109.289C213.313 108.868 213.209 108.374 213.209 107.808C213.209 107.25 213.313 106.757 213.521 106.331C213.732 105.905 214.026 105.572 214.402 105.333C214.781 105.094 215.224 104.974 215.73 104.974C216.038 104.974 216.336 105.025 216.625 105.127C216.914 105.229 217.173 105.389 217.403 105.607C217.633 105.824 217.814 106.107 217.946 106.455C218.079 106.801 218.145 107.221 218.145 107.716V108.092H213.809V107.297H217.105C217.105 107.018 217.048 106.77 216.934 106.555C216.82 106.337 216.661 106.165 216.455 106.04C216.251 105.914 216.012 105.852 215.737 105.852C215.439 105.852 215.179 105.925 214.956 106.072C214.736 106.216 214.566 106.406 214.445 106.64C214.326 106.872 214.267 107.124 214.267 107.396V108.018C214.267 108.382 214.331 108.692 214.459 108.948C214.589 109.204 214.77 109.399 215.002 109.534C215.234 109.667 215.505 109.733 215.816 109.733C216.017 109.733 216.2 109.705 216.366 109.648C216.532 109.589 216.675 109.501 216.796 109.385C216.916 109.269 217.009 109.126 217.073 108.955L218.078 109.136C217.997 109.432 217.853 109.692 217.644 109.914C217.438 110.134 217.179 110.306 216.867 110.429C216.557 110.55 216.203 110.61 215.805 110.61ZM62.3097 119.045V119.898H59.2273V119.045H62.3097ZM60.0724 124.5V118.413C60.0724 118.072 60.147 117.79 60.2962 117.565C60.4453 117.337 60.643 117.168 60.8892 117.057C61.1354 116.943 61.4029 116.886 61.6918 116.886C61.9048 116.886 62.0871 116.904 62.2386 116.94C62.3902 116.973 62.5026 117.004 62.576 117.032L62.3274 117.891C62.2777 117.877 62.2138 117.861 62.1357 117.842C62.0575 117.82 61.9628 117.81 61.8516 117.81C61.5935 117.81 61.4089 117.874 61.2976 118.001C61.1887 118.129 61.1342 118.314 61.1342 118.555V124.5H60.0724ZM65.4879 124.61C64.9766 124.61 64.5303 124.493 64.1491 124.259C63.768 124.024 63.4721 123.696 63.2614 123.275C63.0507 122.853 62.9453 122.361 62.9453 121.798C62.9453 121.232 63.0507 120.737 63.2614 120.313C63.4721 119.889 63.768 119.56 64.1491 119.326C64.5303 119.092 64.9766 118.974 65.4879 118.974C65.9993 118.974 66.4455 119.092 66.8267 119.326C67.2079 119.56 67.5038 119.889 67.7145 120.313C67.9252 120.737 68.0305 121.232 68.0305 121.798C68.0305 122.361 67.9252 122.853 67.7145 123.275C67.5038 123.696 67.2079 124.024 66.8267 124.259C66.4455 124.493 65.9993 124.61 65.4879 124.61ZM65.4915 123.719C65.8229 123.719 66.0975 123.631 66.3153 123.456C66.5331 123.281 66.6941 123.048 66.7983 122.756C66.9048 122.465 66.9581 122.144 66.9581 121.794C66.9581 121.446 66.9048 121.126 66.7983 120.835C66.6941 120.542 66.5331 120.306 66.3153 120.129C66.0975 119.951 65.8229 119.862 65.4915 119.862C65.1577 119.862 64.8807 119.951 64.6605 120.129C64.4427 120.306 64.2805 120.542 64.174 120.835C64.0698 121.126 64.0178 121.446 64.0178 121.794C64.0178 122.144 64.0698 122.465 64.174 122.756C64.2805 123.048 64.4427 123.281 64.6605 123.456C64.8807 123.631 65.1577 123.719 65.4915 123.719ZM69.2157 124.5V119.045H70.242V119.912H70.2988C70.3983 119.618 70.5734 119.388 70.8244 119.219C71.0777 119.049 71.3642 118.964 71.6838 118.964C71.7501 118.964 71.8282 118.966 71.9181 118.971C72.0105 118.976 72.0827 118.982 72.1348 118.989V120.004C72.0922 119.992 72.0164 119.979 71.9075 119.965C71.7986 119.949 71.6897 119.94 71.5808 119.94C71.3298 119.94 71.1061 119.994 70.9096 120.1C70.7155 120.204 70.5616 120.35 70.448 120.537C70.3343 120.722 70.2775 120.932 70.2775 121.169V124.5H69.2157ZM81.6554 117.227V124.5H80.6468L76.9501 119.166H76.8826V124.5H75.7853V117.227H76.801L80.5012 122.568H80.5687V117.227H81.6554ZM83.256 124.5V117.227H85.8484C86.4118 117.227 86.8794 117.324 87.2511 117.518C87.6251 117.713 87.9045 117.981 88.0891 118.325C88.2738 118.665 88.3661 119.06 88.3661 119.507C88.3661 119.952 88.2726 120.344 88.0856 120.683C87.9009 121.019 87.6216 121.28 87.2475 121.467C86.8758 121.654 86.4083 121.748 85.8448 121.748H83.881V120.803H85.7454C86.1005 120.803 86.3893 120.752 86.6119 120.651C86.8368 120.549 87.0013 120.401 87.1055 120.207C87.2096 120.013 87.2617 119.779 87.2617 119.507C87.2617 119.232 87.2085 118.995 87.1019 118.793C86.9978 118.592 86.8332 118.438 86.6083 118.332C86.3858 118.223 86.0934 118.168 85.7312 118.168H84.3533V124.5H83.256ZM86.8462 121.219L88.6431 124.5H87.3931L85.6317 121.219H86.8462ZM90.7987 117.227V124.5H89.7013V117.227H90.7987ZM96.5453 124.621C96.1996 124.621 95.8871 124.557 95.6078 124.429C95.3284 124.299 95.1071 124.111 94.9437 123.864C94.7827 123.618 94.7022 123.316 94.7022 122.959C94.7022 122.651 94.7614 122.398 94.8798 122.199C94.9982 122 95.158 121.843 95.3592 121.727C95.5604 121.611 95.7853 121.523 96.0339 121.464C96.2825 121.405 96.5358 121.36 96.7939 121.329C97.1206 121.291 97.3857 121.26 97.5893 121.237C97.7929 121.21 97.9409 121.169 98.0332 121.112C98.1255 121.055 98.1717 120.963 98.1717 120.835V120.81C98.1717 120.5 98.0841 120.26 97.9089 120.089C97.7361 119.919 97.478 119.834 97.1348 119.834C96.7773 119.834 96.4956 119.913 96.2896 120.072C96.086 120.228 95.9451 120.402 95.867 120.594L94.8691 120.366C94.9875 120.035 95.1603 119.768 95.3876 119.564C95.6172 119.358 95.8812 119.209 96.1795 119.116C96.4778 119.022 96.7915 118.974 97.1206 118.974C97.3384 118.974 97.5692 119 97.813 119.053C98.0592 119.102 98.2889 119.195 98.502 119.33C98.7174 119.464 98.8938 119.657 99.0311 119.908C99.1684 120.157 99.237 120.48 99.237 120.878V124.5H98.2001V123.754H98.1575C98.0888 123.892 97.9859 124.027 97.8485 124.159C97.7112 124.292 97.5349 124.402 97.3194 124.489C97.104 124.577 96.8459 124.621 96.5453 124.621ZM96.7761 123.768C97.0697 123.768 97.3206 123.71 97.5289 123.594C97.7396 123.478 97.8994 123.327 98.0083 123.14C98.1196 122.951 98.1752 122.748 98.1752 122.533V121.83C98.1374 121.867 98.064 121.903 97.9551 121.936C97.8485 121.967 97.7266 121.994 97.5893 122.018C97.452 122.039 97.3182 122.059 97.188 122.078C97.0578 122.095 96.9489 122.109 96.8613 122.121C96.6554 122.147 96.4672 122.191 96.2967 122.252C96.1286 122.314 95.9937 122.402 95.8919 122.518C95.7924 122.632 95.7427 122.784 95.7427 122.973C95.7427 123.236 95.8398 123.435 96.0339 123.57C96.228 123.702 96.4754 123.768 96.7761 123.768ZM102.949 124.61C102.421 124.61 101.966 124.491 101.585 124.251C101.206 124.01 100.915 123.677 100.712 123.254C100.508 122.83 100.406 122.344 100.406 121.798C100.406 121.244 100.51 120.755 100.719 120.331C100.927 119.905 101.221 119.572 101.599 119.333C101.978 119.094 102.424 118.974 102.938 118.974C103.353 118.974 103.722 119.051 104.046 119.205C104.371 119.357 104.632 119.57 104.831 119.844C105.032 120.119 105.152 120.44 105.19 120.807H104.156C104.099 120.551 103.969 120.331 103.766 120.146C103.564 119.962 103.295 119.869 102.956 119.869C102.66 119.869 102.401 119.947 102.178 120.104C101.958 120.258 101.786 120.478 101.663 120.764C101.54 121.048 101.479 121.384 101.479 121.773C101.479 122.17 101.539 122.514 101.66 122.803C101.781 123.091 101.951 123.315 102.171 123.474C102.394 123.632 102.655 123.712 102.956 123.712C103.157 123.712 103.339 123.675 103.503 123.602C103.669 123.526 103.807 123.418 103.918 123.278C104.032 123.139 104.111 122.971 104.156 122.774H105.19C105.152 123.127 105.037 123.442 104.845 123.719C104.653 123.996 104.397 124.214 104.075 124.372C103.755 124.531 103.38 124.61 102.949 124.61ZM108.623 124.61C108.095 124.61 107.64 124.491 107.259 124.251C106.88 124.01 106.589 123.677 106.385 123.254C106.182 122.83 106.08 122.344 106.08 121.798C106.08 121.244 106.184 120.755 106.393 120.331C106.601 119.905 106.894 119.572 107.273 119.333C107.652 119.094 108.098 118.974 108.612 118.974C109.026 118.974 109.396 119.051 109.72 119.205C110.044 119.357 110.306 119.57 110.505 119.844C110.706 120.119 110.826 120.44 110.863 120.807H109.83C109.773 120.551 109.643 120.331 109.439 120.146C109.238 119.962 108.968 119.869 108.63 119.869C108.334 119.869 108.075 119.947 107.852 120.104C107.632 120.258 107.46 120.478 107.337 120.764C107.214 121.048 107.153 121.384 107.153 121.773C107.153 122.17 107.213 122.514 107.334 122.803C107.454 123.091 107.625 123.315 107.845 123.474C108.068 123.632 108.329 123.712 108.63 123.712C108.831 123.712 109.013 123.675 109.177 123.602C109.342 123.526 109.481 123.418 109.592 123.278C109.706 123.139 109.785 122.971 109.83 122.774H110.863C110.826 123.127 110.711 123.442 110.519 123.719C110.327 123.996 110.07 124.214 109.748 124.372C109.429 124.531 109.054 124.61 108.623 124.61ZM114.297 124.61C113.785 124.61 113.339 124.493 112.958 124.259C112.577 124.024 112.281 123.696 112.07 123.275C111.859 122.853 111.754 122.361 111.754 121.798C111.754 121.232 111.859 120.737 112.07 120.313C112.281 119.889 112.577 119.56 112.958 119.326C113.339 119.092 113.785 118.974 114.297 118.974C114.808 118.974 115.254 119.092 115.635 119.326C116.016 119.56 116.312 119.889 116.523 120.313C116.734 120.737 116.839 121.232 116.839 121.798C116.839 122.361 116.734 122.853 116.523 123.275C116.312 123.696 116.016 124.024 115.635 124.259C115.254 124.493 114.808 124.61 114.297 124.61ZM114.3 123.719C114.632 123.719 114.906 123.631 115.124 123.456C115.342 123.281 115.503 123.048 115.607 122.756C115.713 122.465 115.767 122.144 115.767 121.794C115.767 121.446 115.713 121.126 115.607 120.835C115.503 120.542 115.342 120.306 115.124 120.129C114.906 119.951 114.632 119.862 114.3 119.862C113.966 119.862 113.689 119.951 113.469 120.129C113.251 120.306 113.089 120.542 112.983 120.835C112.878 121.126 112.826 121.446 112.826 121.794C112.826 122.144 112.878 122.465 112.983 122.756C113.089 123.048 113.251 123.281 113.469 123.456C113.689 123.631 113.966 123.719 114.3 123.719ZM121.48 122.238V119.045H122.545V124.5H121.501V123.555H121.444C121.319 123.847 121.117 124.089 120.84 124.283C120.566 124.475 120.224 124.571 119.814 124.571C119.464 124.571 119.154 124.494 118.884 124.34C118.616 124.184 118.405 123.953 118.252 123.648C118.1 123.342 118.024 122.965 118.024 122.515V119.045H119.086V122.387C119.086 122.759 119.189 123.055 119.395 123.275C119.601 123.495 119.869 123.605 120.198 123.605C120.396 123.605 120.594 123.555 120.791 123.456C120.99 123.357 121.154 123.206 121.284 123.005C121.417 122.804 121.482 122.548 121.48 122.238ZM125.033 121.261V124.5H123.972V119.045H124.991V119.933H125.058C125.184 119.644 125.38 119.412 125.648 119.237C125.918 119.062 126.257 118.974 126.667 118.974C127.039 118.974 127.364 119.053 127.643 119.209C127.923 119.363 128.139 119.592 128.293 119.898C128.447 120.203 128.524 120.581 128.524 121.031V124.5H127.462V121.158C127.462 120.763 127.359 120.454 127.153 120.232C126.947 120.007 126.665 119.894 126.305 119.894C126.058 119.894 125.839 119.947 125.648 120.054C125.458 120.161 125.308 120.317 125.197 120.523C125.088 120.726 125.033 120.973 125.033 121.261ZM132.494 119.045V119.898H129.515V119.045H132.494ZM130.314 117.739H131.376V122.898C131.376 123.104 131.406 123.259 131.468 123.364C131.53 123.465 131.609 123.535 131.706 123.573C131.805 123.609 131.913 123.626 132.029 123.626C132.114 123.626 132.189 123.621 132.253 123.609C132.317 123.597 132.366 123.587 132.402 123.58L132.594 124.457C132.532 124.481 132.445 124.505 132.331 124.528C132.217 124.554 132.075 124.569 131.905 124.571C131.625 124.576 131.365 124.526 131.124 124.422C130.882 124.318 130.687 124.157 130.538 123.939C130.388 123.721 130.314 123.448 130.314 123.119V117.739ZM138.613 124.61C138.102 124.61 137.655 124.493 137.274 124.259C136.893 124.024 136.597 123.696 136.386 123.275C136.176 122.853 136.07 122.361 136.07 121.798C136.07 121.232 136.176 120.737 136.386 120.313C136.597 119.889 136.893 119.56 137.274 119.326C137.655 119.092 138.102 118.974 138.613 118.974C139.124 118.974 139.571 119.092 139.952 119.326C140.333 119.56 140.629 119.889 140.839 120.313C141.05 120.737 141.156 121.232 141.156 121.798C141.156 122.361 141.05 122.853 140.839 123.275C140.629 123.696 140.333 124.024 139.952 124.259C139.571 124.493 139.124 124.61 138.613 124.61ZM138.616 123.719C138.948 123.719 139.223 123.631 139.44 123.456C139.658 123.281 139.819 123.048 139.923 122.756C140.03 122.465 140.083 122.144 140.083 121.794C140.083 121.446 140.03 121.126 139.923 120.835C139.819 120.542 139.658 120.306 139.44 120.129C139.223 119.951 138.948 119.862 138.616 119.862C138.283 119.862 138.006 119.951 137.786 120.129C137.568 120.306 137.406 120.542 137.299 120.835C137.195 121.126 137.143 121.446 137.143 121.794C137.143 122.144 137.195 122.465 137.299 122.756C137.406 123.048 137.568 123.281 137.786 123.456C138.006 123.631 138.283 123.719 138.616 123.719ZM142.341 126.545V119.045H143.378V119.93H143.466C143.528 119.816 143.617 119.685 143.733 119.536C143.849 119.386 144.01 119.256 144.216 119.145C144.422 119.031 144.694 118.974 145.032 118.974C145.473 118.974 145.866 119.086 146.211 119.308C146.557 119.531 146.828 119.852 147.025 120.271C147.224 120.69 147.323 121.194 147.323 121.783C147.323 122.373 147.225 122.878 147.028 123.3C146.832 123.719 146.562 124.042 146.219 124.269C145.875 124.494 145.483 124.607 145.043 124.607C144.712 124.607 144.441 124.551 144.23 124.44C144.022 124.328 143.858 124.198 143.74 124.049C143.622 123.9 143.53 123.767 143.466 123.651H143.403V126.545H142.341ZM143.381 121.773C143.381 122.156 143.437 122.492 143.548 122.781C143.659 123.07 143.82 123.296 144.031 123.46C144.242 123.621 144.5 123.701 144.805 123.701C145.122 123.701 145.388 123.617 145.601 123.449C145.814 123.278 145.975 123.048 146.084 122.756C146.195 122.465 146.251 122.137 146.251 121.773C146.251 121.413 146.196 121.09 146.087 120.803C145.981 120.517 145.82 120.291 145.604 120.125C145.391 119.959 145.125 119.876 144.805 119.876C144.497 119.876 144.237 119.956 144.024 120.114C143.813 120.273 143.653 120.494 143.545 120.778C143.436 121.062 143.381 121.394 143.381 121.773ZM150.863 124.61C150.326 124.61 149.863 124.495 149.475 124.266C149.089 124.034 148.791 123.708 148.58 123.289C148.372 122.868 148.268 122.374 148.268 121.808C148.268 121.25 148.372 120.757 148.58 120.331C148.791 119.905 149.084 119.572 149.461 119.333C149.84 119.094 150.282 118.974 150.789 118.974C151.097 118.974 151.395 119.025 151.684 119.127C151.973 119.229 152.232 119.389 152.461 119.607C152.691 119.824 152.872 120.107 153.005 120.455C153.137 120.801 153.204 121.221 153.204 121.716V122.092H148.868V121.297H152.163C152.163 121.018 152.106 120.77 151.993 120.555C151.879 120.337 151.719 120.165 151.513 120.04C151.31 119.914 151.071 119.852 150.796 119.852C150.498 119.852 150.237 119.925 150.015 120.072C149.795 120.216 149.624 120.406 149.503 120.64C149.385 120.872 149.326 121.124 149.326 121.396V122.018C149.326 122.382 149.39 122.692 149.518 122.948C149.648 123.204 149.829 123.399 150.061 123.534C150.293 123.667 150.564 123.733 150.874 123.733C151.075 123.733 151.259 123.705 151.425 123.648C151.59 123.589 151.733 123.501 151.854 123.385C151.975 123.269 152.067 123.126 152.131 122.955L153.136 123.136C153.056 123.432 152.911 123.692 152.703 123.914C152.497 124.134 152.238 124.306 151.925 124.429C151.615 124.55 151.261 124.61 150.863 124.61ZM155.444 121.261V124.5H154.382V119.045H155.401V119.933H155.468C155.594 119.644 155.79 119.412 156.058 119.237C156.328 119.062 156.667 118.974 157.077 118.974C157.449 118.974 157.774 119.053 158.054 119.209C158.333 119.363 158.55 119.592 158.703 119.898C158.857 120.203 158.934 120.581 158.934 121.031V124.5H157.873V121.158C157.873 120.763 157.77 120.454 157.564 120.232C157.358 120.007 157.075 119.894 156.715 119.894C156.469 119.894 156.25 119.947 156.058 120.054C155.868 120.161 155.718 120.317 155.607 120.523C155.498 120.726 155.444 120.973 155.444 121.261ZM160.358 124.5V119.045H161.42V124.5H160.358ZM160.895 118.204C160.71 118.204 160.551 118.142 160.419 118.019C160.288 117.894 160.223 117.745 160.223 117.572C160.223 117.397 160.288 117.247 160.419 117.124C160.551 116.999 160.71 116.936 160.895 116.936C161.079 116.936 161.237 116.999 161.367 117.124C161.499 117.247 161.566 117.397 161.566 117.572C161.566 117.745 161.499 117.894 161.367 118.019C161.237 118.142 161.079 118.204 160.895 118.204ZM163.91 121.261V124.5H162.849V119.045H163.868V119.933H163.935C164.061 119.644 164.257 119.412 164.525 119.237C164.795 119.062 165.134 118.974 165.544 118.974C165.916 118.974 166.241 119.053 166.52 119.209C166.8 119.363 167.016 119.592 167.17 119.898C167.324 120.203 167.401 120.581 167.401 121.031V124.5H166.339V121.158C166.339 120.763 166.236 120.454 166.03 120.232C165.824 120.007 165.541 119.894 165.182 119.894C164.935 119.894 164.716 119.947 164.525 120.054C164.335 120.161 164.185 120.317 164.074 120.523C163.965 120.726 163.91 120.973 163.91 121.261ZM171.112 126.659C170.679 126.659 170.306 126.602 169.993 126.489C169.683 126.375 169.43 126.225 169.233 126.038C169.037 125.851 168.89 125.646 168.793 125.423L169.706 125.047C169.77 125.151 169.855 125.261 169.961 125.377C170.07 125.496 170.217 125.596 170.402 125.679C170.589 125.762 170.829 125.803 171.123 125.803C171.525 125.803 171.858 125.705 172.121 125.509C172.383 125.314 172.515 125.004 172.515 124.578V123.506H172.447C172.383 123.622 172.291 123.751 172.17 123.893C172.052 124.035 171.889 124.158 171.68 124.262C171.472 124.366 171.201 124.418 170.867 124.418C170.436 124.418 170.048 124.318 169.702 124.116C169.359 123.913 169.087 123.613 168.885 123.218C168.687 122.82 168.587 122.331 168.587 121.751C168.587 121.171 168.685 120.674 168.882 120.26C169.081 119.846 169.353 119.528 169.699 119.308C170.044 119.086 170.436 118.974 170.874 118.974C171.213 118.974 171.486 119.031 171.694 119.145C171.903 119.256 172.065 119.386 172.181 119.536C172.299 119.685 172.39 119.816 172.454 119.93H172.532V119.045H173.573V124.621C173.573 125.089 173.464 125.474 173.246 125.775C173.028 126.076 172.734 126.298 172.362 126.442C171.993 126.587 171.576 126.659 171.112 126.659ZM171.101 123.538C171.407 123.538 171.665 123.467 171.876 123.325C172.089 123.18 172.25 122.974 172.358 122.707C172.47 122.437 172.525 122.114 172.525 121.737C172.525 121.37 172.471 121.047 172.362 120.768C172.253 120.488 172.093 120.271 171.883 120.114C171.672 119.956 171.412 119.876 171.101 119.876C170.782 119.876 170.515 119.959 170.302 120.125C170.089 120.288 169.928 120.511 169.819 120.793C169.713 121.074 169.66 121.389 169.66 121.737C169.66 122.095 169.714 122.408 169.823 122.678C169.932 122.948 170.093 123.159 170.306 123.31C170.521 123.462 170.787 123.538 171.101 123.538Z" fill="#424242"/>
</g>
<path d="M50.2715 87.5L44.7321 94L44.7321 81L50.2715 87.5Z" fill="#F2B456"/>
<path d="M38.5381 87.5L32.9987 94L32.9987 81L38.5381 87.5Z" fill="#F2B456"/>
<path d="M62.001 87.5L56.4615 94L56.4615 81L62.001 87.5Z" fill="#F2B456"/>
<defs>
<filter id="filter0_d_8497_5234" x="85.5" y="31.7988" width="311.05" height="379.701" filterUnits="userSpaceOnUse" color-interpolation-filters="sRGB">
<feFlood flood-opacity="0" result="BackgroundImageFix"/>
<feColorMatrix in="SourceAlpha" type="matrix" values="0 0 0 0 0 0 0 0 0 0 0 0 0 0 0 0 0 0 127 0" result="hardAlpha"/>
<feMorphology radius="2" operator="dilate" in="SourceAlpha" result="effect1_dropShadow_8497_5234"/>
<feOffset dy="4"/>
<feGaussianBlur stdDeviation="6.25"/>
<feComposite in2="hardAlpha" operator="out"/>
<feColorMatrix type="matrix" values="0 0 0 0 0 0 0 0 0 0 0 0 0 0 0 0 0 0 0.15 0"/>
<feBlend mode="normal" in2="BackgroundImageFix" result="effect1_dropShadow_8497_5234"/>
<feBlend mode="normal" in="SourceGraphic" in2="effect1_dropShadow_8497_5234" result="shape"/>
</filter>
<filter id="filter1_d_8497_5234" x="119.028" y="20.741" width="299.504" height="358.857" filterUnits="userSpaceOnUse" color-interpolation-filters="sRGB">
<feFlood flood-opacity="0" result="BackgroundImageFix"/>
<feColorMatrix in="SourceAlpha" type="matrix" values="0 0 0 0 0 0 0 0 0 0 0 0 0 0 0 0 0 0 127 0" result="hardAlpha"/>
<feMorphology radius="3" operator="erode" in="SourceAlpha" result="effect1_dropShadow_8497_5234"/>
<feOffset dx="8" dy="-3"/>
<feGaussianBlur stdDeviation="5.4"/>
<feComposite in2="hardAlpha" operator="out"/>
<feColorMatrix type="matrix" values="0 0 0 0 0.773421 0 0 0 0 0.773421 0 0 0 0 0.773421 0 0 0 0.15 0"/>
<feBlend mode="normal" in2="BackgroundImageFix" result="effect1_dropShadow_8497_5234"/>
<feBlend mode="normal" in="SourceGraphic" in2="effect1_dropShadow_8497_5234" result="shape"/>
</filter>
<filter id="filter2_d_8497_5234" x="39.2" y="88.2" width="201.6" height="50.6" filterUnits="userSpaceOnUse" color-interpolation-filters="sRGB">
<feFlood flood-opacity="0" result="BackgroundImageFix"/>
<feColorMatrix in="SourceAlpha" type="matrix" values="0 0 0 0 0 0 0 0 0 0 0 0 0 0 0 0 0 0 127 0" result="hardAlpha"/>
<feOffset dx="-1"/>
<feGaussianBlur stdDeviation="1.4"/>
<feComposite in2="hardAlpha" operator="out"/>
<feColorMatrix type="matrix" values="0 0 0 0 0.548633 0 0 0 0 0.53965 0 0 0 0 0.53965 0 0 0 0.35 0"/>
<feBlend mode="normal" in2="BackgroundImageFix" result="effect1_dropShadow_8497_5234"/>
<feBlend mode="normal" in="SourceGraphic" in2="effect1_dropShadow_8497_5234" result="shape"/>
</filter>
<clipPath id="clip0_8497_5234">
<rect width="79.404" height="76.9226" fill="white" transform="translate(363.021 15)"/>
</clipPath>
<clipPath id="clip1_8497_5234">
<rect width="78" height="54" fill="white" transform="translate(224 170)"/>
</clipPath>
</defs>
</svg>
